<svg xml:space="preserve" viewBox="6.75 3.5 101.49999999999999 93.75" y="0px" x="0px" version="1.1" xmlns:xlink="http://www.w3.org/1999/xlink" xmlns="http://www.w3.org/2000/svg" style="max-height: 500px" width="101.49999999999999" height="93.75"><path d="M79.214,92.051c-0.553,0.555-8.409-1.223-8.409-1.223s3.645,3.804,2.75,3.804s-5.343-3.816-6.133-3.816  c-0.788,0-4.816,1.235-4.816,0.762s3.785-3.013,4.18-3.408c0.3-0.3-0.29-7.285-0.59-11.623c0.578,0.163,1.142,0.251,1.672,0.251  c0.002,0,0,0,0.002,0c0.706,0,1.32-0.146,1.86-0.378l-0.513,11.672C69.849,88.313,79.751,91.514,79.214,92.051z M54.645,90.835  c-2.352-1.011-5.704-1.069-5.704-1.425c0-0.274,1.34-8.107,1.952-11.666c-0.456,0.122-0.918,0.198-1.381,0.198  c-0.67,0-1.278-0.166-1.814-0.462c-0.216,3.274-0.718,10.906-0.718,11.216c0,0.396-1.732,0.806-4.949,2.158  C38.181,92.474,36.306,95,36.741,95s5.488-3.257,9.12-2.604C47.104,92.617,47.479,95,48.388,95s0.575-2.481,1.065-2.803  c2.172-1.421,8.666,2.467,9.12,2.013C59.027,93.758,57.862,92.217,54.645,90.835z M64.383,13.616c1.307,0,4.334,0.986,4.334,0.986  s0-2.225,0-4.495s0-2.614,0-2.614s-1.188-0.008-3.097,0.584c-4.221,0.783-4.062,4.462-3.784,6.571  C61.836,14.648,63.075,13.616,64.383,13.616z M71.839,72.239c0.486-1.067,0.786-2.459,0.967-3.628  c-2.712,1.182-5.472,1.921-8.145,2.131c-0.544,0.044-1.087,0.069-1.63,0.098c0.586,1.683,1.669,3.931,3.398,4.461  C69.272,76.168,70.812,74.49,71.839,72.239z M92.983,37.587c-0.842,16.841-15.056,30.845-28.425,31.896  c-3.095,0.238-5.901,0.219-8.392,0.031c-0.366,1.378-1.14,3.838-2.29,4.997c-1.656,1.658-4.543,3.035-6.08,1.499  c-1.537-1.538-1.26-8.213-1.26-8.213c-2.241-0.664-3.451-1.26-3.451-1.26s-3.472,4.682-6.109,8.372  c-2.628,3.679-5.367,6.158-6.319,6.158c-0.584,0-1.488,0.01-2.083-0.357c-0.357-0.228,4.196-5.247,4.196-5.96  c0-1.23-7.37,7.735-9.055,8.738c-1.281,0.753-3.998,0.763-5.059,0.534c-0.308-0.078,5.465-6.636,6.824-8.171  c-1.616,1.575-9.7,9.47-12.349,9.47c-2.946,0-6.208,0.745-6.208,0c0-0.723,14.282-11.236,14.729-11.563  c-0.249,0.06-3.839,0.972-5.575,0.517c-1.785-0.477-2.21-1.796-1.686-2.322c0.526-0.524,8.321-6.001,8.321-6.001  s4.79,0.269,10.592-1.428c5.803-1.694,12.25-5.335,12.25-5.335s5.9,0.366,11.94-1.767s15.295-9.839,15.295-11.019  c0-1.19-9.125,7.498-15.682,9.828c-6.555,2.332-10.811,1.617-10.811,1.617s3.63-2.331,6.119-4.186  c2.479-1.855,4.93-4.265,4.691-4.503c-0.238-0.238-10.116,8.232-20.094,12.616c-8.5,3.739-16.504,1.993-16.504,1.993  s4.701-2.171,7.033-3.71c2.33-1.536,3.511-3.63,3.511-3.63s2.767-0.237,5.644-1.27c2.887-1.021,4.9-2.836,4.9-3.193  c0-0.356-3.273,1.935-7.34,2.837c-3.093,0.694-6.973,0.615-7.27,0.317c-0.298-0.298,4.652-1.655,8.877-4.146  c4.225-2.479,9.145-9.025,17.485-14.252c7.567-4.741,17.406-7.33,18.646-8.292c0.804-0.615,1.478-1.369,2.054-2.212  c0,0,4.8-6.367-1.062-10.027c-0.263-0.164-0.543-0.32-0.842-0.469c0.295,0.147,0.569,0.301,0.822,0.459  c-0.654-0.347-1.26-0.645-1.774-0.883c-0.14-0.059-0.269-0.109-0.388-0.168c-0.079-0.04-0.168-0.069-0.247-0.109  c-0.101-0.03-0.189-0.079-0.278-0.119c-0.467-0.199-0.744-0.297-0.744-0.297V7.495c0,0,0.277-0.992,3.72-1.824  c2.89-0.693,7.442-1.232,10.063,0.415c5.519,3.469,7.684,10.948,8.751,16.941c0.188,1.001,0.347,2.073,0.486,3.193  C93.023,29.514,93.202,33.312,92.983,37.587z M78.076,6.953c-0.011-0.12-0.121-0.207-0.238-0.195L76.601,6.88  c-0.521,0.053-1.028,0.184-1.509,0.39c-0.44,0.188-0.906,0.309-1.382,0.356l-1.685,0.167c-0.12,0.012-0.206,0.119-0.194,0.238  c0.011,0.112,0.105,0.196,0.216,0.196c0.008,0,0.015,0,0.022-0.001l0.928-0.092c-0.226,0.167-0.381,0.422-0.381,0.725  c0,0.506,0.41,0.917,0.917,0.917c0.506,0,0.918-0.411,0.918-0.917c0-0.369-0.223-0.684-0.536-0.829  c0.463-0.062,0.917-0.176,1.348-0.36c0.44-0.189,0.905-0.309,1.382-0.356l1.237-0.124C78.002,7.178,78.089,7.072,78.076,6.953z   M78.216,6.86c-0.012-0.01-0.012-0.01-0.012-0.01v0.01H78.216z"/><text font-family="'Helvetica Neue', Helvetica, Arial-Unicode, Arial, Sans-serif" font-weight="bold" font-size="5px" fill="#000000" y="115" x="0">Created by Kevin</text><text font-family="'Helvetica Neue', Helvetica, Arial-Unicode, Arial, Sans-serif" font-weight="bold" font-size="5px" fill="#000000" y="120" x="0">from the Noun Project</text></svg>