<svg width="440" height="538" viewBox="0 0 440 538" fill="none" xmlns="http://www.w3.org/2000/svg">
<ellipse cx="359" cy="98.5" rx="445" ry="439.5" fill="#4A4947"/>
<path d="M373.912 291.687L372.868 291.679L369.601 291.637L360.611 280.752L357.83 280.977L349.375 275.656L344.855 275.856L333.284 265.037L335.214 260.4L329.324 253.549L323.643 252.697L323.233 250.717L320.401 249.831L315.589 240.098L312.206 231.008L311.162 225.428L305.063 222.412L303.901 221.117L300.601 217.425L289.456 229.722L281.778 233.633L273.799 244.627L278.453 253.266L293.541 264.887L294.811 267.753L298.812 269.983L302.322 277.226L308.604 280.577L316.608 289.307L304.502 283L305.078 284.929L306.841 289.107L302.798 285.915L298.754 284.929L304.87 296.45L294.853 286.884L290.124 279.39L286.991 276.967L286.841 279.507L272.279 263.558L267.567 262.397L262.304 258.37L257.274 249.756L251.802 243.925L248.694 244.192L241.635 238.979L245.168 245.779L238.593 241.226L239.771 245.111L230.222 240.007L230.773 235.98L229.245 232.395L228.175 232.805L229.679 227.842L227.966 229.538L227.624 225.979L225.235 225.152L227.148 224.567L226.939 217.624L218.944 212.077L218.301 216.597L215.878 219.722L216.713 212.629L218.409 209.747L216.622 208.393L214.8 210.507L210.088 203.731L213.689 193.388L212.252 194.14L212.444 188.71L210.489 190.481L207.456 196.463L198.25 208.694L190.915 213.84L186.144 224.108V224.117L185.451 225.612L177.907 237.977L166.896 246.825L161.917 253.542L169.778 260.384L182.369 254.628C185.418 256.942 188.459 259.256 191.509 261.57L223.031 284.662L238.67 293L247.576 292.8L278.354 316.594L288.622 324.53L291.504 323.369L293.743 325.416L300.218 327.755L306.217 331.197L317.045 321.974L320.855 313.711L330.246 327.555L333.027 326.26L335.81 329.911L342.243 324.773L345.509 319.067L347.765 319.301L349.87 316.853L352.802 317.864L358.701 326.695L365.008 330.63L368.074 334.924L370.355 330.312L372.268 332.058L375.76 332.3L377.748 334.949L378.943 335.158L379.152 333.596L380.949 336.311L382.211 335.843L416.523 323.011L373.912 291.687ZM306.039 255.755L307.727 251.06L309.498 248.595L311.846 249.08L306.039 255.755ZM215.159 235.178L212.761 230.783L210.288 228.202L209.169 230.049L209.686 234.819L205.308 231.001L202.401 237.392L202.134 234.911L204.507 229.656L204.54 226.54L200.797 221.16L201.433 216.415L205.058 209.464L210.113 214.527L210.313 217.551L212.887 220.659L213.488 226.03L216.145 230.467L215.159 235.178ZM238.41 260.935L232.002 257.559L228.894 255.421L226.471 255.922L222.452 252.388L219.737 251.377L219.486 249.723L218.258 248.044L221.776 241.193L221.742 235.445L225.092 231.944L223.338 236.472L224.616 238.595L227.223 245.095L228.96 245.789L234.65 252.088L235.042 254.377L239.737 259.265L246.012 265.631L238.41 260.935ZM329.482 262.288L332.005 259.673L329.482 265.112V262.288ZM330.928 296.859L329.098 295.79L326.984 292.03L323.609 291.395L324.745 294.837L322.506 293.926L319.474 295.505L321.838 292.598L321.371 290.008L327.712 287.577L337.244 302.448L330.928 296.859ZM351.755 311.772L347.444 308.998L351.597 310.51L345.757 304.512L353.836 309.199L359.257 315.841L351.755 311.772Z" fill="#4A4947"/>
<path d="M380.946 336.31L352.474 346.953L334.571 349.911L307.937 356.127L274.944 366.136L242.779 359.093L231.676 364.373L224.583 357.43L180.655 375L124.119 347.514L96.3741 354.774L85.5714 349.786L76.2308 352.643L67.8426 347.797L55.3028 351.415L46.9647 347.028L37.6492 349.017C37.6492 349.017 22.7364 347.53 23.0035 347.321C26.2371 345.917 29.5036 344.555 32.7866 343.26L35.6021 337.211L53.23 325.615L63.3309 309.658L79.5805 290.492L87.6344 290.609L92.6637 287.501L112.355 265.545L117.009 265.554L137.486 245.277L138.831 278.788L145.665 304.561L159.7 316.057L156.718 294.26L149.876 288.11L140.961 272.997L154.379 284.502L145.097 264.685L152.725 271.828L149.166 263.064L143.986 255.16L147.578 257.558L149.842 256.246L151.405 256.898L153.911 255.436L159.375 252.252L161.63 263.163L164.763 266.096L169.776 260.382L182.367 254.625C182.233 254.926 182.191 267.316 182.191 267.316L197.923 286.54L199.92 297.994L199.945 298.145L196.946 308.513L210.656 318.154L210.163 307.376L206.687 304.194L200.865 293.333L209.294 300.818L201.099 279.364L200.247 273.207L216.446 289.498L224.216 297.552L239.179 308.396L234.776 296.884L242.537 296.316L246.706 297.41L265.537 313.844L260.608 305.222L278.353 316.592L288.621 324.529L291.503 323.367L293.742 325.415L300.217 327.754L306.216 331.196L317.044 321.973L320.854 313.71L330.244 327.553L333.026 326.259L335.809 329.91L342.241 324.772L345.508 319.065L347.763 319.3L349.869 316.852L352.801 317.863L358.699 326.693L365.007 330.629L368.073 334.923L370.353 330.311L372.267 332.057L375.759 332.299L377.747 334.948L378.942 335.157L379.151 333.594L380.946 336.31Z" fill="#4A4947"/>
<path d="M306.841 289.106L305.078 284.929L304.502 282.999L316.608 289.307L308.604 280.576L302.322 277.226L298.812 269.982L294.811 267.752L293.541 264.886L278.453 253.265L273.799 244.626L267.717 233.315L263.315 228.252L258.695 218.519L247.691 210.54L241.584 202.336L236.254 193.922L223.205 185L222.971 188.685L227.565 191.441L227.966 196.955L228.501 199.228L230.072 201.676L227.632 201.484L227.039 199.262L219.746 191.367L216.738 190.54L216.713 190.531L215.427 190.172L212.444 188.71L212.252 194.14L213.689 193.388L210.088 203.731L214.801 210.507L216.622 208.393L218.41 209.747L216.714 212.629L215.878 219.722L218.301 216.597L218.944 212.077L226.939 217.624L227.149 224.567L225.235 225.152L227.625 225.979L227.967 229.538L229.68 227.842L228.176 232.805L229.245 232.395L230.774 235.98L230.222 240.007L239.771 245.111L238.594 241.226L245.169 245.779L241.635 238.979L248.695 244.192L251.802 243.925L257.275 249.756L262.304 258.37L267.568 262.397L272.28 263.558L286.842 279.507L286.992 276.967L290.125 279.39L294.853 286.884L304.871 296.45L298.755 284.929L302.798 285.915L306.841 289.106ZM250.339 239.388L237.507 227.124L234.741 220.674L229.378 215.695L226.169 209.404L231.558 213.23L229.704 208.493L236.362 213.481L241.592 220.398L250.356 227.942L250.339 239.388Z" fill="#FAF7F0"/>
<path d="M372.868 291.679L369.601 291.637L360.611 280.752L357.83 280.977L349.375 275.656L344.854 275.856L333.283 265.037L335.214 260.4L329.324 253.549L323.643 252.697L323.233 250.717L320.401 249.831L315.589 240.098L312.205 231.008L311.161 225.428L305.062 222.412L303.901 221.117L308.17 218.251L322.815 229.981L335.865 252.029L340.41 252.405L349.884 267.092L356.877 272.798L361.313 276.85L372.868 291.679Z" fill="#FAF7F0"/>
<path d="M230.072 201.676L227.632 201.484L227.039 199.261L219.745 191.366L216.738 190.539L223.204 185L222.97 188.685L227.565 191.441L227.966 196.955L228.501 199.228L230.072 201.676Z" fill="#4A4947"/>
<path d="M216.145 230.466L215.159 235.178L212.761 230.783L210.288 228.202L209.169 230.048L209.686 234.818L205.308 231L202.401 237.392L202.134 234.91L204.507 229.655L204.54 226.539L200.797 221.159L201.432 216.414L205.058 209.462L210.112 214.525L210.313 217.549L212.886 220.657L213.488 226.029L216.145 230.466Z" fill="#EDF0F7"/>
<path d="M246.012 265.63L238.41 260.935L232.001 257.559L228.894 255.421L226.471 255.922L222.452 252.388L219.737 251.377L219.486 249.723L218.258 248.043L221.776 241.193L221.742 235.445L225.092 231.944L223.338 236.472L224.616 238.595L227.223 245.094L228.96 245.788L234.65 252.087L235.042 254.376L239.738 259.264L246.012 265.63Z" fill="#EDF0F7"/>
<path d="M250.357 227.942L250.339 239.388L237.507 227.124L234.742 220.674L229.378 215.695L226.17 209.404L231.559 213.23L229.704 208.493L236.363 213.481L241.592 220.398L250.357 227.942Z" fill="#4A4947"/>
<path d="M278.353 316.592L247.574 292.799L238.668 292.999L223.029 284.661L191.507 261.569C188.457 259.255 185.417 256.941 182.367 254.627C182.233 254.927 182.192 267.317 182.192 267.317L197.923 286.541L199.92 297.996L199.945 298.146L196.946 308.514L210.656 318.155L210.163 307.378L206.687 304.195L200.865 293.334L209.294 300.82L201.099 279.365L200.247 273.208L216.446 289.499L224.216 297.553L239.179 308.397L234.776 296.885L242.537 296.317L246.706 297.411L265.537 313.845L260.608 305.223L278.353 316.592Z" fill="#FAF7F0"/>
<path d="M337.244 302.449L330.928 296.859L329.098 295.79L326.984 292.03L323.609 291.395L324.745 294.837L322.506 293.926L319.473 295.506L321.838 292.598L321.37 290.008L327.711 287.577L337.244 302.449Z" fill="#FAF7F0"/>
<path d="M359.258 315.84L351.755 311.772L347.444 308.998L351.597 310.51L345.757 304.512L353.836 309.199L359.258 315.84Z" fill="#FAF7F0"/>
<path d="M332.005 259.673L329.482 265.112V262.288L332.005 259.673Z" fill="#FAF7F0"/>
<path d="M311.846 249.079L306.039 255.755L307.727 251.059L309.498 248.595L311.846 249.079Z" fill="#FAF7F0"/>
<path d="M156.719 294.261L149.876 288.112L140.962 272.998L154.38 284.503L145.098 264.686L152.725 271.829L149.166 263.065L143.986 255.161L147.579 257.559L149.843 256.248L151.405 256.899L153.911 255.437L137.486 245.278L138.832 278.788L145.666 304.562L159.701 316.058L156.719 294.261Z" fill="#FAF7F0"/>
<path d="M186.143 224.116L185.45 225.612L177.906 237.976L166.894 246.824L161.915 253.541L169.777 260.383L164.764 266.098L161.631 263.165L159.375 252.254L167.32 240.666L186.143 224.116Z" fill="#FAF7F0"/>
</svg>
