<svg width="394" height="190" viewBox="0 0 394 190" fill="none" xmlns="http://www.w3.org/2000/svg">
<path d="M350.912 106.687L349.868 106.679L346.601 106.637L337.611 95.7516L334.83 95.9771L326.375 90.6555L321.855 90.856L310.284 80.0368L312.214 75.3999L306.324 68.549L300.643 67.6969L300.233 65.717L297.401 64.8313L292.589 55.0983L289.206 46.0084L288.162 40.4277L282.063 37.4117L280.901 36.1171L277.601 32.4245L266.456 44.7223L258.778 48.6325L250.799 59.6271L255.453 68.266L270.541 79.8871L271.811 82.7526L275.812 84.9831L279.322 92.2265L285.604 95.5767L293.608 104.307L281.502 97.9997L282.078 99.9295L283.841 104.107L279.798 100.915L275.754 99.9295L281.87 111.45L271.853 101.884L267.124 94.3903L263.991 91.9673L263.841 94.507L249.279 78.5582L244.567 77.3969L239.304 73.3699L234.274 64.7561L228.802 58.9248L225.694 59.1919L218.635 53.9785L222.168 60.7793L215.593 56.2261L216.771 60.1112L207.222 55.0067L207.773 50.9797L206.245 47.3953L205.175 47.8049L206.679 42.8421L204.966 44.5383L204.624 40.979L202.235 40.152L204.148 39.567L203.939 32.6244L195.944 27.0773L195.301 31.5969L192.878 34.7216L193.713 27.6287L195.409 24.7466L193.622 23.3933L191.8 25.507L187.088 18.7313L190.689 8.38825L189.252 9.14008L189.444 3.70972L187.489 5.48112L184.456 11.4628L175.25 23.694L167.915 28.8402L163.145 39.108V39.1165L162.451 40.6123L154.907 52.9773L143.896 61.8246L138.917 68.5416L146.778 75.384L159.369 69.6278C162.418 71.942 165.459 74.2562 168.509 76.5704L200.031 99.6624L215.67 108L224.576 107.8L255.354 131.594L265.622 139.53L268.504 138.369L270.743 140.416L277.218 142.755L283.217 146.197L294.045 136.974L297.855 128.711L307.246 142.555L310.027 141.26L312.81 144.911L319.243 139.773L322.509 134.067L324.765 134.301L326.87 131.853L329.802 132.864L335.701 141.695L342.008 145.63L345.074 149.924L347.355 145.312L349.268 147.058L352.76 147.3L354.748 149.949L355.943 150.158L356.152 148.596L357.949 151.311L359.211 150.843L393.523 138.011L350.912 106.687ZM283.039 70.755L284.727 66.0599L286.498 63.5954L288.846 64.0801L283.039 70.755ZM192.159 50.1778L189.761 45.7835L187.288 43.2021L186.169 45.0487L186.686 49.819L182.309 46.0011L179.401 52.3923L179.134 49.9113L181.507 44.6563L181.54 41.5401L177.797 36.1599L178.433 31.4148L182.059 24.4636L187.113 29.5266L187.313 32.5511L189.887 35.6587L190.488 41.0304L193.145 45.4668L192.159 50.1778ZM215.41 75.9347L209.002 72.5594L205.894 70.4206L203.471 70.9219L199.452 67.3882L196.737 66.3772L196.487 64.7231L195.259 63.044L198.776 56.1931L198.742 50.4449L202.092 46.9442L200.338 51.4724L201.616 53.5947L204.223 60.0947L205.96 60.7885L211.65 67.0881L212.042 69.3772L216.737 74.2648L223.012 80.631L215.41 75.9347ZM306.482 77.288L309.005 74.6731L306.482 80.112V77.288ZM307.928 111.859L306.098 110.79L303.984 107.03L300.609 106.395L301.745 109.837L299.506 108.926L296.474 110.505L298.838 107.598L298.371 105.008L304.712 102.577L314.244 117.448L307.928 111.859ZM328.756 126.772L324.444 123.998L328.597 125.51L322.757 119.512L330.836 124.199L336.257 130.841L328.756 126.772Z" fill="#4A4947"/>
<path d="M357.946 151.31L329.474 161.953L311.571 164.911L284.937 171.127L251.944 181.136L219.779 174.093L208.676 179.373L201.583 172.43L157.655 190L101.119 162.514L73.3741 169.774L62.5714 164.786L53.2308 167.643L44.8426 162.798L32.3028 166.415L23.9647 162.029L14.6492 164.017C14.6492 164.017 -0.263571 162.53 0.00354609 162.321C3.23707 160.917 6.50361 159.555 9.78665 158.26L12.6021 152.211L30.23 140.615L40.3309 124.658L56.5805 105.493L64.6344 105.609L69.6637 102.501L89.3553 80.5455L94.0087 80.5541L114.486 60.2776L115.831 93.7877L122.665 119.561L136.7 131.057L133.718 109.26L126.876 103.111L117.961 87.9973L131.379 99.5017L122.097 79.6849L129.725 86.828L126.166 78.0638L120.986 70.1603L124.578 72.5583L126.842 71.2465L128.405 71.8981L130.911 70.436L136.375 67.2526L138.63 78.1635L141.763 81.0963L146.776 75.3816L159.367 69.6255C159.233 69.9262 159.191 82.3163 159.191 82.3163L174.923 101.54L176.92 112.994L176.945 113.145L173.946 123.513L187.656 133.154L187.163 122.377L183.687 119.194L177.865 108.333L186.294 115.818L178.099 94.3641L177.247 88.207L193.446 104.498L201.216 112.552L216.179 123.396L211.776 111.884L219.537 111.316L223.706 112.41L242.537 128.844L237.608 120.222L255.353 131.592L265.621 139.529L268.503 138.368L270.742 140.415L277.217 142.754L283.216 146.196L294.044 136.973L297.854 128.71L307.244 142.553L310.026 141.259L312.809 144.91L319.241 139.772L322.508 134.066L324.763 134.3L326.869 131.852L329.801 132.863L335.699 141.693L342.007 145.629L345.073 149.923L347.353 145.311L349.267 147.057L352.759 147.299L354.747 149.948L355.942 150.157L356.151 148.594L357.946 151.31Z" fill="#4A4947"/>
<path d="M283.841 104.106L282.078 99.9288L281.502 97.9991L293.608 104.307L285.604 95.5761L279.322 92.2258L275.812 84.9825L271.811 82.752L270.541 79.8865L255.453 68.2653L250.799 59.6265L244.717 48.3146L240.315 43.2516L235.695 33.5187L224.691 25.54L218.584 17.3357L213.254 8.92246L200.205 0L199.971 3.68463L204.565 6.44138L204.966 11.9555L205.501 14.2281L207.072 16.6762L204.632 16.4843L204.039 14.2618L196.746 6.36681L193.738 5.53978L193.713 5.53122L192.427 5.17181L189.444 3.70969L189.252 9.14006L190.689 8.38822L187.088 18.7312L191.801 25.507L193.622 23.3933L195.41 24.7466L193.714 27.6286L192.878 34.7216L195.301 31.5969L195.944 27.0773L203.939 32.6244L204.149 39.567L202.235 40.152L204.625 40.979L204.967 44.5383L206.68 42.8421L205.176 47.8049L206.245 47.3953L207.774 50.9797L207.222 55.0066L216.771 60.1112L215.594 56.2261L222.169 60.7793L218.635 53.9785L225.695 59.1919L228.802 58.9248L234.275 64.7561L239.304 73.3699L244.568 77.3968L249.28 78.5582L263.842 94.507L263.992 91.9673L267.125 94.3903L271.853 101.884L281.871 111.45L275.755 99.9294L279.798 100.915L283.841 104.106ZM227.339 54.3881L214.507 42.1239L211.741 35.6739L206.378 30.6947L203.169 24.4037L208.558 28.2301L206.704 23.4929L213.362 28.4807L218.592 35.3983L227.356 42.9423L227.339 54.3881Z" fill="#FAF7F0"/>
<path d="M349.868 106.68L346.601 106.637L337.611 95.7516L334.83 95.9771L326.375 90.6556L321.854 90.8561L310.283 80.0369L312.214 75.3999L306.324 68.549L300.643 67.6969L300.233 65.7171L297.401 64.8314L292.589 55.0984L289.205 46.0084L288.161 40.4277L282.062 37.4118L280.901 36.1171L285.17 33.251L299.815 44.9809L312.865 67.0288L317.41 67.4047L326.884 82.0919L333.877 87.798L338.313 91.8499L349.868 106.68Z" fill="#FAF7F0"/>
<path d="M207.072 16.6756L204.632 16.4837L204.039 14.2611L196.745 6.3662L193.738 5.53917L200.204 0L199.97 3.68463L204.565 6.44138L204.966 11.9555L205.501 14.2281L207.072 16.6756Z" fill="#4A4947"/>
<path d="M193.145 45.4657L192.159 50.1778L189.761 45.7829L187.288 43.2016L186.169 45.0482L186.686 49.8184L182.308 46.0005L179.401 52.3918L179.134 49.9101L181.507 44.6551L181.54 41.539L177.797 36.1587L178.432 31.4136L182.058 24.4624L187.112 29.5254L187.313 32.5493L189.886 35.6575L190.488 41.0292L193.145 45.4657Z" fill="#EDF0F7"/>
<path d="M223.012 80.6296L215.41 75.9346L209.001 72.5593L205.894 70.4205L203.471 70.9217L199.452 67.3881L196.737 66.377L196.486 64.723L195.258 63.0433L198.776 56.193L198.742 50.4447L202.092 46.9441L200.338 51.4723L201.616 53.5945L204.223 60.094L205.96 60.7878L211.65 67.0873L212.042 69.3758L216.738 74.2634L223.012 80.6296Z" fill="#EDF0F7"/>
<path d="M227.357 42.9424L227.339 54.3881L214.507 42.1239L211.742 35.674L206.378 30.6947L203.17 24.4037L208.559 28.2301L206.704 23.4929L213.363 28.4807L218.592 35.3983L227.357 42.9424Z" fill="#4A4947"/>
<path d="M255.353 131.592L224.574 107.799L215.668 107.999L200.029 99.661L168.507 76.5691C165.457 74.2549 162.417 71.9407 159.367 69.6265C159.233 69.9272 159.192 82.3173 159.192 82.3173L174.923 101.541L176.92 112.995L176.945 113.146L173.946 123.514L187.656 133.155L187.163 122.378L183.687 119.195L177.865 108.334L186.294 115.819L178.099 94.3651L177.247 88.2079L193.446 104.499L201.216 112.553L216.179 123.397L211.776 111.885L219.537 111.317L223.706 112.411L242.537 128.845L237.608 120.223L255.353 131.592Z" fill="#FAF7F0"/>
<path d="M314.244 117.449L307.928 111.859L306.098 110.79L303.985 107.03L300.609 106.395L301.746 109.837L299.506 108.926L296.473 110.506L298.838 107.598L298.37 105.008L304.711 102.577L314.244 117.449Z" fill="#FAF7F0"/>
<path d="M336.258 130.841L328.756 126.772L324.444 123.998L328.597 125.51L322.757 119.512L330.836 124.199L336.258 130.841Z" fill="#FAF7F0"/>
<path d="M309.005 74.6731L306.482 80.112V77.288L309.005 74.6731Z" fill="#FAF7F0"/>
<path d="M288.846 64.0794L283.039 70.7549L284.727 66.0593L286.498 63.5947L288.846 64.0794Z" fill="#FAF7F0"/>
<path d="M133.719 109.261L126.876 103.112L117.962 87.9984L131.38 99.5028L122.098 79.686L129.725 86.8291L126.166 78.0649L120.986 70.1614L124.579 72.5594L126.843 71.2476L128.405 71.8992L130.911 70.4371L114.486 60.2781L115.832 93.7882L122.666 119.562L136.701 131.058L133.719 109.261Z" fill="#FAF7F0"/>
<path d="M163.143 39.116L162.45 40.6117L154.906 52.9761L143.894 61.824L138.915 68.5411L146.777 75.3834L141.764 81.098L138.631 78.1652L136.375 67.2544L144.32 55.6662L163.143 39.116Z" fill="#FAF7F0"/>
</svg>
