<?xml version="1.0" encoding="UTF-8"?>
<svg version="1.1" xmlns="http://www.w3.org/2000/svg" width="3912" height="4381">
<path d="M0 0 C1.34624954 0.02620926 1.34624954 0.02620926 2.71969604 0.052948 C17.82113638 0.43895537 32.91570326 1.445751 47.99119568 2.38004684 C50.7209714 2.54894597 53.45086439 2.71583381 56.18078613 2.88235474 C94.34996694 5.21755865 132.46776041 8.09027321 170.5625 11.421875 C171.59908752 11.51249332 171.59908752 11.51249332 172.65661621 11.60494232 C251.71871915 18.53023714 330.51537499 27.96287218 570.5625 68.421875 C571.64756836 68.64296936 572.73263672 68.86406372 573.85058594 69.09185791 C657.3018261 86.10620351 739.99383412 106.8678704 821.175354 132.66522217 C823.51320598 133.40625029 825.85269372 134.14184028 828.19287109 134.87548828 C878.59893659 150.69087203 928.48594332 169.01628536 976.71899414 190.59942627 C978.59896982 191.43814539 980.48166552 192.27045851 982.36523438 193.10107422 C1013.48905945 206.83690021 1044.51913488 221.47917225 1073.82177734 238.80566406 C1076.86618221 240.60095715 1079.92683381 242.36674933 1082.98828125 244.1328125 C1113.04344616 261.58161374 1141.8812361 281.12057235 1168.5625 303.421875 C1169.0786084 303.85161621 1169.5947168 304.28135742 1170.12646484 304.72412109 C1190.51257298 321.75008241 1209.60945886 340.13147294 1225.5625 361.421875 C1226.49737819 362.64845095 1227.43227434 363.87501321 1228.3671875 365.1015625 C1234.73190686 373.53179269 1240.37102275 382.22646803 1245.5625 391.421875 C1245.93616699 392.07349609 1246.30983398 392.72511719 1246.69482422 393.39648438 C1261.96248806 420.19465255 1269.132757 448.71399712 1270.5625 479.421875 C1272.38563721 479.48918823 1272.38563721 479.48918823 1274.24560547 479.55786133 C1347.81677693 482.31902576 1421.35498591 490.00225193 1489.07568359 521.27539062 C1491.38207926 522.33869654 1493.6982475 523.37596155 1496.01953125 524.40625 C1524.42014499 537.17781232 1550.17344157 554.9836274 1573.5625 575.421875 C1574.39910156 576.14632812 1575.23570312 576.87078125 1576.09765625 577.6171875 C1586.26886281 586.58108011 1596.04517207 596.08909348 1604.44140625 606.75 C1605.86585018 608.54432716 1607.33341051 610.30518241 1608.83984375 612.03125 C1653.76244638 663.57939045 1674.66920017 733.87850797 1683.29821777 800.39788818 C1683.54754876 802.30737196 1683.80714008 804.21550791 1684.06738281 806.12353516 C1686.75914808 826.66287446 1686.8748351 847.27909608 1686.93041611 867.96024323 C1686.93736249 870.12894278 1686.94901612 872.29757407 1686.96157837 874.46624756 C1687.26957682 936.13761646 1675.10425392 997.88255469 1648.77050781 1053.84423828 C1647.67074514 1056.19090246 1646.60570889 1058.54917738 1645.5546875 1060.91796875 C1629.57541239 1096.54934247 1606.54665543 1129.54685718 1581.5625 1159.421875 C1581.12212402 1159.94861816 1580.68174805 1160.47536133 1580.22802734 1161.01806641 C1568.37936709 1175.14166943 1555.69907689 1188.37383055 1542.6875 1201.421875 C1541.87739975 1202.2359935 1541.87739975 1202.2359935 1541.05093384 1203.06655884 C1535.06873116 1209.07126425 1529.03255794 1214.93808479 1522.5625 1220.421875 C1521.40598558 1221.43180268 1520.25101604 1222.44350241 1519.09765625 1223.45703125 C1505.96874073 1234.92113647 1492.66817037 1246.16946093 1478.5625 1256.421875 C1477.90701172 1256.89947266 1477.25152344 1257.37707031 1476.57617188 1257.86914062 C1472.01169296 1261.19214749 1467.43292033 1264.49468555 1462.84423828 1267.78417969 C1461.37730113 1268.83705947 1459.91199155 1269.89221259 1458.44873047 1270.95019531 C1446.46619075 1279.61330563 1434.12144452 1287.62125129 1421.5625 1295.421875 C1420.49064453 1296.08880371 1419.41878906 1296.75573242 1418.31445312 1297.44287109 C1400.71345929 1308.35783953 1382.84148657 1318.68413031 1364.5625 1328.421875 C1363.8992572 1328.77529968 1363.2360144 1329.12872437 1362.55267334 1329.49285889 C1285.65054079 1370.38673654 1203.32478812 1402.13939902 1086.5625 1434.421875 C1085.82253784 1434.61803406 1085.08257568 1434.81419312 1084.32019043 1435.01629639 C1066.75629449 1439.67121976 1049.08264321 1443.70250936 1031.3125 1447.484375 C1030.35383026 1447.69081635 1029.39516052 1447.89725769 1028.40744019 1448.10995483 C1025.68502753 1448.69371644 1022.96030104 1449.26493153 1020.234375 1449.83203125 C1019.41612747 1450.00862274 1018.59787994 1450.18521423 1017.75483704 1450.36715698 C1013.99619278 1451.13403987 1011.23248543 1451.54294774 1007.5625 1450.421875 C1013.54312718 1440.4624522 1019.68271437 1430.63112646 1026.0625 1420.921875 C1031.03680038 1413.34791198 1035.89196355 1405.7240585 1040.58129883 1397.97070312 C1043.74230803 1392.74720386 1046.97574471 1387.57506921 1050.25 1382.421875 C1056.47250012 1372.61703363 1062.54940226 1362.72444456 1068.625 1352.828125 C1071.55262831 1348.06011139 1074.49410632 1343.30102702 1077.4465332 1338.54833984 C1094.31637539 1311.38373147 1110.76733406 1283.97641478 1126.5625 1256.171875 C1127.09609131 1255.2442334 1127.62968262 1254.3165918 1128.17944336 1253.36083984 C1130.60543997 1249.09997566 1132.86318717 1244.86962191 1134.80078125 1240.36328125 C1139.57010691 1229.47412352 1139.57010691 1229.47412352 1144.6171875 1226.80859375 C1148.03016851 1225.97553279 1151.37309899 1225.42482839 1154.84375 1224.91845703 C1160.59470287 1223.86804053 1166.16185594 1222.05273036 1171.75 1220.359375 C1172.71241608 1220.07039337 1172.71241608 1220.07039337 1173.6942749 1219.77557373 C1197.00077485 1212.75903868 1219.4428843 1203.5388986 1241.5625 1193.421875 C1242.4095752 1193.03821777 1243.25665039 1192.65456055 1244.12939453 1192.25927734 C1300.25646981 1166.76537238 1356.49773844 1128.89646343 1396.5625 1081.421875 C1397.35785156 1080.51566406 1398.15320312 1079.60945313 1398.97265625 1078.67578125 C1431.84223301 1041.00102853 1454.34964266 995.46791432 1464.375 946.546875 C1464.57005127 945.598125 1464.76510254 944.649375 1464.96606445 943.671875 C1468.1991955 926.92291559 1468.93723764 910.37514449 1468.875 893.359375 C1468.87317719 892.32450958 1468.87135437 891.28964417 1468.86947632 890.22341919 C1468.8236858 874.77560819 1468.43104645 859.64549949 1465.5625 844.421875 C1465.39621094 843.514375 1465.22992187 842.606875 1465.05859375 841.671875 C1459.01345327 809.78935635 1447.15990372 778.99559938 1425.5625 754.421875 C1424.83289062 753.57109375 1424.10328125 752.7203125 1423.3515625 751.84375 C1392.30104711 716.32631837 1345.62946078 699.99821278 1299.5625 696.421875 C1295.99904998 696.29256141 1292.44052972 696.28124472 1288.875 696.2890625 C1287.89184814 696.28810577 1286.90869629 696.28714905 1285.89575195 696.28616333 C1283.83186783 696.28548749 1281.76798151 696.28729983 1279.70410156 696.29150391 C1276.57091431 696.29686061 1273.43787037 696.29153848 1270.3046875 696.28515625 C1268.28645802 696.28581714 1266.26822863 696.28709852 1264.25 696.2890625 C1263.32678955 696.28703827 1262.4035791 696.28501404 1261.45239258 696.28292847 C1255.4347198 696.30429145 1249.53829518 696.71576728 1243.5625 697.421875 C1243.23677002 698.61522461 1242.91104004 699.80857422 1242.57543945 701.03808594 C1216.41804027 796.74592837 1186.43823442 891.34360964 1121.5625 1050.421875 C1121.23290283 1051.17239136 1120.90330566 1051.92290771 1120.5637207 1052.69616699 C1110.27902575 1076.09022664 1099.58916531 1099.278841 1088.56176758 1122.33154297 C1087.57921865 1124.38690185 1086.59884774 1126.44328524 1085.61914062 1128.5 C1079.38647565 1141.57840032 1073.08251327 1154.60078131 1066.2421875 1167.375 C1064.14314502 1171.30203258 1062.09996751 1175.25541507 1060.0703125 1179.21875 C1053.20605485 1192.62203258 1046.16283763 1205.87542882 1038.67578125 1218.9453125 C1035.54938201 1224.41139949 1032.55188361 1229.94254033 1029.5625 1235.484375 C1023.51701625 1246.63864861 1017.10654668 1257.554021 1010.5625 1268.421875 C1009.88993164 1269.53965332 1009.21736328 1270.65743164 1008.52441406 1271.80908203 C1000.2155205 1285.60522631 991.83199438 1299.35024348 983.15820312 1312.92089844 C981.36451226 1315.73218504 979.5807852 1318.54968511 977.796875 1321.3671875 C968.98932373 1335.24506955 959.91713448 1348.90750504 950.5625 1362.421875 C949.90217773 1363.37868164 949.24185547 1364.33548828 948.56152344 1365.32128906 C939.71550194 1378.13466855 930.74797427 1390.84965517 921.5625 1403.421875 C921.00353027 1404.18951172 920.44456055 1404.95714844 919.86865234 1405.74804688 C911.83222661 1416.77745778 903.60627581 1427.63835254 895.17480469 1438.36865234 C893.67764468 1440.27524163 892.18551616 1442.18562797 890.6953125 1444.09765625 C884.24893028 1452.3559633 877.66678967 1460.50002902 871.0390625 1468.61328125 C869.73202459 1470.2142298 868.42826644 1471.81785476 867.125 1473.421875 C861.83662492 1479.91902152 856.45268667 1486.33072341 851.02148438 1492.70849609 C850.03499956 1493.86698847 849.04934435 1495.0261877 848.06445312 1496.18603516 C842.08473614 1503.22586285 836.03233525 1510.17232847 829.7890625 1516.98046875 C827.87116793 1519.08342333 825.98873955 1521.20856656 824.125 1523.359375 C819.85687265 1528.265727 815.44376512 1533.03830684 811.03613281 1537.81884766 C809.57860399 1539.40435697 808.12839061 1540.99627033 806.6796875 1542.58984375 C800.75873896 1549.08205969 794.6708947 1555.36019655 788.42480469 1561.5402832 C785.50583573 1564.43933162 782.66420746 1567.34535829 780 1570.484375 C773.28066248 1578.39750345 765.69969515 1585.71329567 757.78515625 1592.41796875 C754.58954021 1595.29907776 751.58860367 1598.36448046 748.5625 1601.421875 C744.43145831 1605.59122703 740.29842583 1609.65841295 735.81640625 1613.453125 C732.48812325 1616.36032541 729.28416403 1619.39750364 726.0625 1622.421875 C720.9755399 1627.18742329 715.86596942 1631.89689651 710.5625 1636.421875 C709.52972944 1637.30833928 708.49720072 1638.19508535 707.46484375 1639.08203125 C705.07022736 1641.13837721 702.67265261 1643.19120968 700.2734375 1645.2421875 C697.8542862 1647.31158198 695.44311267 1649.38964807 693.0390625 1651.4765625 C686.79318696 1656.88778426 680.46799165 1662.14811598 673.93994141 1667.21606445 C670.21529465 1670.1100975 666.54524771 1673.06011762 662.90258789 1676.05664062 C653.8368571 1683.50835822 644.5096288 1690.57467064 635.07958984 1697.55761719 C632.63961382 1699.36476141 630.20428574 1701.17801742 627.76953125 1702.9921875 C601.83942105 1722.26445778 575.06044879 1740.45776365 547.5625 1757.421875 C546.03085205 1758.37030273 546.03085205 1758.37030273 544.46826172 1759.33789062 C527.4320356 1769.86530913 510.1657418 1779.86351936 492.5625 1789.421875 C491.42312988 1790.04304199 490.28375977 1790.66420898 489.10986328 1791.30419922 C439.41692721 1818.35684123 388.06211238 1841.57304132 334.78344727 1860.62689209 C332.56213338 1861.42200623 330.34254778 1862.22181369 328.12304688 1863.02197266 C242.01550034 1893.96543826 151.13996519 1912.96706284 -1.625 1923.984375 C-2.42719971 1924.00522156 -3.22939941 1924.02606812 -4.0559082 1924.04754639 C-17.51984082 1924.39263037 -30.96903341 1924.62654482 -44.4375 1924.421875 C-45.71270508 1924.40398926 -46.98791016 1924.38610352 -48.30175781 1924.36767578 C-146.75593577 1922.86799738 -244.89089317 1908.43383502 -496.4375 1826.421875 C-497.53352539 1825.9489502 -498.62955078 1825.47602539 -499.75878906 1824.98876953 C-539.6602611 1807.71252352 -578.99108047 1788.74937849 -616.66113281 1767.00927734 C-620.67010046 1764.71712929 -624.71289231 1762.48727123 -628.75292969 1760.25048828 C-641.86099011 1752.98096137 -654.72425305 1745.36070643 -667.4375 1737.421875 C-668.09719788 1737.01054321 -668.75689575 1736.59921143 -669.43658447 1736.17541504 C-681.38284871 1728.71581128 -693.17155059 1721.03795129 -704.88134766 1713.21289062 C-707.56574033 1711.41971045 -710.25340613 1709.63151675 -712.94140625 1707.84375 C-723.89905378 1700.54157328 -734.72268094 1693.07548149 -745.4375 1685.421875 C-746.31873535 1684.79603516 -747.1999707 1684.17019531 -748.10791016 1683.52539062 C-760.42708726 1674.76484265 -772.45070139 1665.6297098 -784.4375 1656.421875 C-785.67949271 1655.47109966 -786.92165751 1654.52054904 -788.1640625 1653.5703125 C-791.26302137 1651.19755018 -794.35234497 1648.81257081 -797.4375 1646.421875 C-797.9732666 1646.00695801 -798.5090332 1645.59204102 -799.06103516 1645.16455078 C-813.49744682 1633.96424886 -827.53757251 1622.27868062 -841.4375 1610.421875 C-842.01628906 1609.92945312 -842.59507812 1609.43703125 -843.19140625 1608.9296875 C-849.9444425 1603.18304326 -856.64280021 1597.39198539 -863.2109375 1591.43359375 C-865.26854391 1589.57452831 -867.34596763 1587.74259142 -869.4375 1585.921875 C-877.65174653 1578.75905202 -885.69789655 1571.4053764 -893.70812988 1564.01580811 C-894.81223106 1562.9981755 -895.91750147 1561.98180903 -897.02429199 1560.96710205 C-909.86521963 1549.17757857 -922.16518869 1536.8487961 -934.47680664 1524.51293945 C-937.43164216 1521.55235422 -940.39102042 1518.5963566 -943.35170078 1515.64161777 C-945.66394259 1513.33300659 -947.97377677 1511.02199826 -950.2829113 1508.71027946 C-951.37327978 1507.6192514 -952.46437066 1506.52894474 -953.5562458 1505.43942451 C-958.86487101 1500.1397618 -964.11862197 1494.83408464 -968.96861267 1489.10484314 C-970.55055252 1487.29234581 -972.22015211 1485.60592438 -973.9375 1483.921875 C-976.90465801 1481.00056712 -979.63808971 1477.94195827 -982.35546875 1474.7890625 C-984.997964 1471.78464951 -987.71590173 1468.85453428 -990.4375 1465.921875 C-994.85261903 1461.15565307 -999.20672398 1456.35340068 -1003.4375 1451.421875 C-1003.85435059 1450.9367041 -1004.27120117 1450.4515332 -1004.70068359 1449.95166016 C-1007.22693384 1447.01095384 -1009.74967446 1444.06728012 -1012.26953125 1441.12109375 C-1014.30321395 1438.74400547 -1016.3420022 1436.37150879 -1018.38671875 1434.00390625 C-1025.61773184 1425.62173522 -1032.69122863 1417.11799791 -1039.69824219 1408.54785156 C-1041.3815933 1406.49021239 -1043.0694474 1404.43633797 -1044.7578125 1402.3828125 C-1051.45048104 1394.21950358 -1057.93291379 1385.91851588 -1064.31640625 1377.51171875 C-1067.16883868 1373.76027407 -1070.07491325 1370.054277 -1073 1366.359375 C-1082.96127511 1353.7400768 -1092.41785309 1340.75500467 -1101.79638672 1327.69970703 C-1103.42121024 1325.44448485 -1105.05475248 1323.19586672 -1106.69140625 1320.94921875 C-1114.48218412 1310.24481664 -1122.0423337 1299.40313954 -1129.4375 1288.421875 C-1129.80077393 1287.88244263 -1130.16404785 1287.34301025 -1130.53833008 1286.78723145 C-1142.40976238 1269.14956806 -1154.09941599 1251.40856669 -1165.4375 1233.421875 C-1165.97858398 1232.56464844 -1166.51966797 1231.70742187 -1167.07714844 1230.82421875 C-1186.93775024 1199.27437525 -1205.74940388 1166.96665671 -1223.37109375 1134.1171875 C-1225.33775749 1130.45145017 -1227.32733851 1126.80049788 -1229.34765625 1123.1640625 C-1237.16365304 1109.06998743 -1244.39325548 1094.71009465 -1251.53923035 1080.26861572 C-1253.48776306 1076.33121644 -1255.44889723 1072.40042937 -1257.4196167 1068.47409058 C-1261.84084791 1059.66245643 -1266.15526392 1050.80174666 -1270.4375 1041.921875 C-1271.12359743 1040.50125355 -1271.80979504 1039.08068047 -1272.49609375 1037.66015625 C-1274.1443758 1034.24794819 -1275.79133123 1030.83510305 -1277.4375 1027.421875 C-1274.91373857 1039.15286658 -1272.15172689 1050.78136971 -1269 1062.359375 C-1268.79018494 1063.13345703 -1268.58036987 1063.90753906 -1268.36419678 1064.70507812 C-1262.82832937 1085.07501512 -1256.71199753 1105.26887248 -1250.4375 1125.421875 C-1250.18784485 1126.2251825 -1249.9381897 1127.02848999 -1249.68096924 1127.85614014 C-1230.56764992 1189.26789364 -1206.84833205 1249.25030236 -1179.4375 1307.421875 C-1178.96521973 1308.42428223 -1178.49293945 1309.42668945 -1178.00634766 1310.45947266 C-1166.31659137 1335.18949872 -1154.30335094 1359.82153333 -1140.95458984 1383.70410156 C-1139.33107692 1386.61252542 -1137.721872 1389.52861148 -1136.11328125 1392.4453125 C-1127.88714466 1407.30925049 -1119.29167211 1421.92422897 -1110.4375 1436.421875 C-1109.88642578 1437.3303418 -1109.33535156 1438.23880859 -1108.76757812 1439.17480469 C-1099.9694571 1453.6499846 -1090.63824355 1467.7630691 -1081.25 1481.859375 C-1080.65675934 1482.75107391 -1080.06351868 1483.64277283 -1079.45230103 1484.56149292 C-1069.45379556 1499.57541036 -1059.23715896 1514.4242827 -1048.5 1528.921875 C-1047.92209717 1529.70393311 -1047.34419434 1530.48599121 -1046.7487793 1531.29174805 C-1028.46076046 1555.97000596 -1009.35590833 1580.04084047 -989.4375 1603.421875 C-988.93782715 1604.00936523 -988.4381543 1604.59685547 -987.92333984 1605.20214844 C-982.18045136 1611.95054425 -976.39351829 1618.64477538 -970.4375 1625.20703125 C-968.64146471 1627.19600002 -966.87796697 1629.20750694 -965.125 1631.234375 C-961.12357191 1635.82316868 -956.9889882 1640.28775036 -952.8449707 1644.74731445 C-950.73899773 1647.01517277 -948.6405288 1649.28943564 -946.55053711 1651.57202148 C-936.52687232 1662.47024246 -926.07469953 1672.93900029 -915.59472656 1683.39501953 C-913.050003 1685.93399254 -910.50987254 1688.47750644 -907.97099495 1691.02232361 C-905.98235691 1693.01459757 -903.99131608 1695.00445658 -901.99956894 1696.99362183 C-900.61361543 1698.37860246 -899.22964208 1699.76556376 -897.84573364 1701.15258789 C-893.39687163 1705.58505084 -888.88964172 1709.87638127 -884.12594604 1713.96923828 C-882.10215776 1715.71038316 -880.15307085 1717.51965673 -878.21875 1719.359375 C-877.51363281 1720.02710937 -876.80851562 1720.69484375 -876.08203125 1721.3828125 C-874.65234375 1722.7421875 -873.22265625 1724.1015625 -871.79296875 1725.4609375 C-867.10531432 1729.90006912 -862.33060648 1734.21043934 -857.4375 1738.421875 C-856.87724121 1738.90430664 -856.31698242 1739.38673828 -855.73974609 1739.88378906 C-854.12035683 1741.27407016 -852.49812753 1742.66096082 -850.875 1744.046875 C-846.45434689 1747.82610238 -842.05036063 1751.62325983 -837.66455078 1755.44287109 C-831.01885118 1761.22756193 -824.29041962 1766.88296394 -817.4375 1772.421875 C-816.17786787 1773.45118988 -814.91879177 1774.48118546 -813.66015625 1775.51171875 C-805.36044887 1782.29847947 -796.96563832 1788.92475217 -788.4375 1795.421875 C-786.8655467 1796.6351407 -785.29360016 1797.8484159 -783.72265625 1799.06298828 C-769.82941875 1809.79288167 -755.72527269 1820.2236964 -741.4375 1830.421875 C-740.36580566 1831.18927002 -740.36580566 1831.18927002 -739.27246094 1831.97216797 C-714.58771161 1849.60493069 -689.19125023 1866.39318713 -663.4375 1882.421875 C-662.43138672 1883.04964844 -661.42527344 1883.67742187 -660.38867188 1884.32421875 C-632.87326282 1901.46496538 -604.79542728 1917.57162119 -576.3125 1933.046875 C-575.02956055 1933.74502319 -575.02956055 1933.74502319 -573.72070312 1934.45727539 C-555.018458 1944.56710625 -536.0741936 1954.22228366 -517.0625 1963.734375 C-515.97733093 1964.27746307 -514.89216187 1964.82055115 -513.77410889 1965.38009644 C-496.79703629 1973.86335099 -479.72296974 1982.02229217 -462.36035156 1989.68261719 C-458.27700482 1991.48717237 -454.21287019 1993.33302861 -450.1484375 1995.1796875 C-361.52138422 2035.33690485 -268.90139373 2067.54880889 -175.4375 2094.421875 C-174.07628021 2094.81415283 -174.07628021 2094.81415283 -172.68756104 2095.21435547 C-95.62269853 2117.39268957 -17.45376986 2135.58857566 270.9140625 2183.828125 C272.02790817 2183.97151306 273.14175385 2184.11490112 274.28935242 2184.26263428 C279.17712907 2184.88609527 284.06434747 2185.4877744 288.96386719 2186.01171875 C289.76649994 2186.09885132 290.56913269 2186.18598389 291.39608765 2186.27575684 C293.46679373 2186.49628051 295.5387716 2186.70477488 297.61083984 2186.91210938 C300.5625 2187.421875 300.5625 2187.421875 302.5625 2189.421875 C228.46888869 2200.82396961 153.57198031 2207.49763537 78.77398682 2212.15759277 C74.79718257 2212.40575986 70.82122819 2212.66621823 66.84521484 2212.92675781 C23.77093817 2215.68868087 -19.34418752 2215.70898076 -62.48833179 2215.73275709 C-64.72841619 2215.73435956 -66.96849705 2215.73695959 -69.20858002 2215.73993301 C-106.32492653 2215.78843988 -143.36323237 2215.40339868 -180.4375 2213.421875 C-181.54624796 2213.36365759 -181.54624796 2213.36365759 -182.67739487 2213.30426407 C-191.49924144 2212.84025617 -200.31280792 2212.2915107 -209.125 2211.671875 C-210.31757416 2211.58950592 -211.51014832 2211.50713684 -212.73886108 2211.42227173 C-324.50499043 2203.64274999 -435.0596377 2186.55218662 -782.4375 2074.421875 C-783.5522168 2073.91672363 -784.66693359 2073.41157227 -785.81542969 2072.89111328 C-816.36408656 2058.99230145 -846.80178929 2044.31478144 -876.02099609 2027.78613281 C-878.62741262 2026.31465821 -881.24473698 2024.86383626 -883.86328125 2023.4140625 C-897.61160329 2015.765298 -911.06204708 2007.65829414 -924.47715759 1999.44567871 C-928.88066614 1996.75317804 -933.30966293 1994.10582085 -937.74780273 1991.47094727 C-946.17554489 1986.46396883 -954.40204316 1981.24489486 -962.50537109 1975.72998047 C-965.348839 1973.80487293 -968.21212753 1971.90996484 -971.07373047 1970.01196289 C-986.43920456 1959.81232663 -1001.54388233 1949.29920121 -1016.4375 1938.421875 C-1017.22060547 1937.85033691 -1018.00371094 1937.27879883 -1018.81054688 1936.68994141 C-1030.13373018 1928.41477418 -1041.3465837 1920.00588331 -1052.4375 1911.421875 C-1053.03868652 1910.95716797 -1053.63987305 1910.49246094 -1054.25927734 1910.01367188 C-1067.07402213 1900.08751124 -1079.56726318 1889.76150579 -1091.90649414 1879.25170898 C-1095.20933388 1876.44271304 -1098.55860066 1873.70112692 -1101.9375 1870.984375 C-1107.31892204 1866.60853255 -1112.37748569 1861.92878685 -1117.4453125 1857.19921875 C-1119.75990262 1855.04109781 -1122.10645746 1852.9301369 -1124.5 1850.859375 C-1129.36813889 1846.64303713 -1134.09125907 1842.26918413 -1138.82568359 1837.90429688 C-1140.4382454 1836.42118944 -1142.05638254 1834.94438626 -1143.67578125 1833.46875 C-1149.69201324 1827.9717493 -1155.54985279 1822.36260358 -1161.27612305 1816.56396484 C-1163.85187076 1813.96731078 -1166.45634512 1811.46953171 -1169.25 1809.109375 C-1177.92744929 1801.7080212 -1186.09437032 1793.3605915 -1193.4375 1784.640625 C-1196.47424174 1781.27173964 -1199.71579823 1778.11298241 -1202.9375 1774.921875 C-1207.28359196 1770.61291125 -1211.55333302 1766.3197455 -1215.50390625 1761.640625 C-1218.39645291 1758.32150075 -1221.42434851 1755.13135853 -1224.4375 1751.921875 C-1229.20303021 1746.83497588 -1233.91336879 1741.72602883 -1238.4375 1736.421875 C-1239.31227272 1735.4008469 -1240.18729699 1734.38003429 -1241.0625 1733.359375 C-1242.57828689 1731.59141881 -1244.09357027 1729.82304532 -1245.60717773 1728.05322266 C-1248.87331913 1724.23623288 -1252.15920521 1720.43728576 -1255.45849609 1716.64892578 C-1261.24322629 1710.00318095 -1266.89727526 1703.27377546 -1272.4375 1696.421875 C-1273.43156922 1695.20904292 -1274.42641311 1693.99684552 -1275.421875 1692.78515625 C-1282.15847965 1684.5685632 -1288.70102305 1676.22839517 -1295.125 1667.765625 C-1297.92487586 1664.08122779 -1300.76612294 1660.431084 -1303.61987305 1656.78833008 C-1315.1987144 1642.00110759 -1326.23312205 1626.8401106 -1337.00488281 1611.45751953 C-1338.37574296 1609.50962725 -1339.75927504 1607.57158768 -1341.1484375 1605.63671875 C-1365.199433 1572.04965473 -1387.43518453 1536.97708103 -1408.4375 1501.421875 C-1408.98229004 1500.49971191 -1409.52708008 1499.57754883 -1410.08837891 1498.62744141 C-1419.09477956 1483.34968905 -1427.85035312 1467.93886709 -1436.4375 1452.421875 C-1436.95554199 1451.48633789 -1437.47358398 1450.55080078 -1438.00732422 1449.58691406 C-1445.43728465 1436.13995066 -1452.5752807 1422.55195109 -1459.62475586 1408.90234375 C-1460.9800521 1406.30017497 -1462.34525724 1403.70463226 -1463.72094727 1401.11328125 C-1469.73600784 1389.77490433 -1475.51251307 1378.33955239 -1481.125 1366.796875 C-1481.76905289 1365.47476517 -1481.76905289 1365.47476517 -1482.42611694 1364.12594604 C-1490.42232404 1347.69489646 -1498.10686638 1331.14060999 -1505.53570557 1314.44616699 C-1506.45151703 1312.39041044 -1507.37059779 1310.33614331 -1508.29052734 1308.28222656 C-1534.10158809 1250.62259969 -1557.19500826 1191.78989323 -1577.82373047 1132.08251953 C-1578.8936815 1128.98718544 -1579.97088222 1125.89453798 -1581.05517578 1122.80419922 C-1612.4080922 1033.43142119 -1637.41113159 941.72862944 -1685.4375 720.421875 C-1685.6244342 719.43946838 -1685.81136841 718.45706177 -1686.00396729 717.44488525 C-1700.35841326 641.97517722 -1709.53956399 565.30330427 -1709.8125 488.421875 C-1709.82044586 487.24341003 -1709.82839172 486.06494507 -1709.83657837 484.85076904 C-1709.92772045 467.39223617 -1708.76863788 450.93698711 -1703.8125 434.109375 C-1703.43291138 432.81108765 -1703.43291138 432.81108765 -1703.0456543 431.48657227 C-1695.73353831 407.45051255 -1683.49631903 385.42210299 -1668.4375 365.421875 C-1667.96812012 364.79555176 -1667.49874023 364.16922852 -1667.01513672 363.52392578 C-1661.39857172 356.0777967 -1655.44727255 349.04220344 -1649.0703125 342.23828125 C-1646.56880754 339.562339 -1644.12255917 336.84572115 -1641.6875 334.109375 C-1636.31506489 328.13576153 -1630.73871988 322.59404497 -1624.6484375 317.35546875 C-1622.1562611 315.17591519 -1619.73911332 312.9241422 -1617.3125 310.671875 C-1611.55825343 305.43140044 -1605.52258877 300.63253678 -1599.3515625 295.89453125 C-1597.3840228 294.3807303 -1595.42605594 292.85512827 -1593.46875 291.328125 C-1569.09148243 272.39280655 -1543.20453801 255.76347858 -1516.4375 240.421875 C-1515.40963379 239.83245117 -1514.38176758 239.24302734 -1513.32275391 238.63574219 C-1480.43351376 219.89427673 -1446.39871426 203.24367994 -1411.60583496 188.35107422 C-1409.45465422 187.42922612 -1407.30574271 186.50225785 -1405.15722656 185.57421875 C-1309.75970145 144.44847066 -1209.65267676 115.10707345 -626.625 12.859375 C-625.58645622 12.76241018 -625.58645622 12.76241018 -624.52693176 12.66348648 C-620.01194388 12.24276498 -615.49641085 11.82834436 -610.98046875 11.41796875 C-609.85857651 11.31533722 -608.73668427 11.21270569 -607.58079529 11.10696411 C-606.0464962 10.9697847 -606.0464962 10.9697847 -604.48120117 10.82983398 C-603.59744308 10.75039047 -602.713685 10.67094696 -601.80314636 10.58909607 C-599.68581547 10.43942774 -597.56011412 10.421875 -595.4375 10.421875 C-595.43163376 11.07078201 -595.42576752 11.71968903 -595.41972351 12.38825989 C-595.18043954 58.00086477 -595.18043954 58.00086477 -591.4375 103.421875 C-591.34146484 104.18985413 -591.24542969 104.95783325 -591.14648438 105.74908447 C-588.14356462 129.46103302 -583.7608755 152.71914455 -578.19018555 175.95727539 C-577.43296971 179.44272785 -576.81910426 182.87515102 -576.4375 186.421875 C-578.22629808 188.21067308 -580.92076529 187.82994646 -583.34985352 188.03515625 C-584.63633286 188.14654938 -585.92281219 188.2579425 -587.24827576 188.37271118 C-587.948085 188.43126911 -588.64789425 188.48982704 -589.36890984 188.55015945 C-591.60625116 188.73771519 -593.84302441 188.93105184 -596.07972717 189.12606812 C-599.33414739 189.40979581 -602.5886913 189.69203374 -605.84332275 189.97332764 C-671.24493868 195.64513419 -736.45850073 203.07394887 -801.4375 212.421875 C-802.43280228 212.56490429 -802.43280228 212.56490429 -803.44821167 212.71082306 C-891.35110567 225.35667928 -978.71527845 241.79063108 -1319.4375 361.421875 C-1320.20610352 361.88094238 -1320.97470703 362.34000977 -1321.76660156 362.81298828 C-1337.42697343 372.20415268 -1352.21126774 382.80008295 -1365.82470703 394.98095703 C-1367.4236844 396.40953173 -1369.03700849 397.82044344 -1370.65234375 399.23046875 C-1377.29840676 405.09720237 -1383.0324625 411.38252744 -1388.4375 418.421875 C-1389.17613281 419.33324219 -1389.91476562 420.24460937 -1390.67578125 421.18359375 C-1407.29313262 442.22075878 -1414.3848773 465.68255081 -1412.4375 492.421875 C-1407.85395276 525.83899005 -1382.20853656 554.5109191 -1356.4375 574.421875 C-1355.85516602 574.87530273 -1355.27283203 575.32873047 -1354.67285156 575.79589844 C-1306.52756492 613.15903691 -1248.92595788 638.66899647 -1191.68377686 658.63665771 C-1189.23568407 659.49242256 -1186.78992253 660.35466208 -1184.34423828 661.21728516 C-1154.66431311 671.66479856 -1124.7562193 681.01116377 -1094.4375 689.421875 C-1093.4412561 689.69860046 -1092.44501221 689.97532593 -1091.4185791 690.26043701 C-1020.05693309 710.03759314 -947.4319225 725.08466111 -874.4375 737.421875 C-873.31118164 737.61267639 -872.18486328 737.80347778 -871.02441406 738.00006104 C-793.24801777 751.1469551 -714.92774165 761.000585 -368.625 785.546875 C-367.46612274 785.58557709 -366.30724548 785.62427917 -365.11325073 785.66415405 C-356.22231454 785.95622784 -347.33043224 786.20038934 -338.4375 786.421875 C-337.59562134 786.44310047 -336.75374268 786.46432594 -335.88635254 786.48619461 C-298.67762146 787.41686654 -261.47505337 787.62478077 -224.25695658 787.61009932 C-222.04022493 787.60936765 -219.8234937 787.60912275 -217.60676193 787.6090126 C-167.52851366 787.6052273 -117.48937196 787.16707007 -67.4375 785.421875 C-65.87662778 785.36805727 -64.31575538 785.31424462 -62.75488281 785.26043701 C9.13924273 782.76674478 80.96266096 778.55742755 589.73254395 706.1036377 C592.62132112 705.40770445 595.51127236 704.71680608 598.40136719 704.02636719 C671.25365687 686.57164837 744.13276044 665.22985158 812.5625 634.421875 C813.7160498 633.90415527 814.86959961 633.38643555 816.05810547 632.85302734 C871.81463181 607.70642899 942.79509446 572.40280016 967.375 511.859375 C968.131421 509.72299676 968.86176664 507.57716094 969.5625 505.421875 C969.8821875 504.47828125 970.201875 503.5346875 970.53125 502.5625 C975.0039485 486.90805524 974.16899714 468.61603011 968.5625 453.421875 C968.17707031 452.37 967.79164063 451.318125 967.39453125 450.234375 C962.75298364 438.4577623 956.49116823 428.26261108 948.5625 418.421875 C948.11100586 417.86064941 947.65951172 417.29942383 947.19433594 416.72119141 C891.85462335 348.62101588 794.2700505 315.81067442 218.33371925 194.83765793 C141.03103549 186.86612193 63.44155709 181.41224246 -117.4375 174.421875 C-116.87245393 169.78632396 -115.60270962 166.24904442 -113.515625 162.08203125 C-113.07151779 161.18973061 -113.07151779 161.18973061 -112.61843872 160.27940369 C-111.65052043 158.34301789 -110.66993423 156.41343204 -109.6875 154.484375 C-109.18346649 153.48603638 -109.18346649 153.48603638 -108.66925049 152.4675293 C-102.78357918 140.81266557 -96.57112299 129.37172902 -89.99072266 118.09277344 C-88.48048191 115.49578605 -86.99431951 112.88627872 -85.51171875 110.2734375 C-70.57488028 84.20747824 -53.34630461 58.91727982 -35.4375 34.796875 C-34.55831909 33.60868164 -34.55831909 33.60868164 -33.66137695 32.39648438 C-29.61096847 26.945344 -25.54724189 21.49569085 -21.24755859 16.23730469 C-19.08099473 13.5874365 -17.24001977 11.08572154 -15.49609375 8.1171875 C-11.30568802 1.46333112 -7.72387689 -0.29224136 0 0 Z M-1279.4375 1022.421875 C-1278.4375 1025.421875 -1278.4375 1025.421875 -1278.4375 1025.421875 Z " fill="#56290D" transform="translate(1967.4375,1817.578125)"/>
<path d="M0 0 C4.00857626 3.8117916 7.33550813 7.87212692 10.625 12.3125 C11.08261719 12.91900391 11.54023437 13.52550781 12.01171875 14.15039062 C22.4858486 28.18572463 32.0370608 42.93542203 41.75 57.5 C42.36561798 58.4230896 42.98123596 59.3461792 43.61550903 60.29724121 C52.99837023 74.37967799 62.26058627 88.50635096 71 103 C71.54575684 103.90443848 72.09151367 104.80887695 72.65380859 105.74072266 C76.49307655 112.12753175 80.26674904 118.55071059 84 125 C84.76812012 126.32572021 84.76812012 126.32572021 85.55175781 127.67822266 C95.14771848 144.30336056 104.18722045 161.22458207 113.07745361 178.23492432 C113.90689797 179.82187115 114.73824134 181.40782508 115.56982422 182.99365234 C124.91882045 200.91610679 132.98676316 219.45191657 141 238 C141.31084534 238.71881348 141.62169067 239.43762695 141.94195557 240.17822266 C175.02588081 316.84421748 196.57382487 398.70422732 204.25 564.5 C204.20676605 565.42031006 204.1635321 566.34062012 204.11898804 567.28881836 C201.98977452 611.32746178 195.70286523 655.21598231 185 698 C184.83584595 698.66094666 184.67169189 699.32189331 184.50256348 700.00286865 C170.44774873 756.54714314 150.59684069 811.20653192 125.52783203 863.79296875 C124.04824454 866.89873118 122.58338187 870.01106271 121.12109375 873.125 C109.58221048 897.57128597 97.22517236 921.64238222 83.69824219 945.04931641 C81.82787515 948.29906569 79.97875371 951.56056696 78.1328125 954.82421875 C66.47297559 975.41441187 54.24741884 995.62357041 41.53613281 1015.58251953 C39.94199714 1018.09128168 38.35708261 1020.60569804 36.7734375 1023.12109375 C28.10661694 1036.85635555 19.14555908 1050.38111762 10.09863281 1063.86743164 C8.00513284 1066.99233836 5.91973502 1070.12252329 3.8359375 1073.25390625 C0.58784373 1078.12804254 -2.6889815 1082.98092191 -6 1087.8125 C-6.54342041 1088.60599854 -7.08684082 1089.39949707 -7.64672852 1090.21704102 C-19.31395831 1107.22537897 -31.14976487 1124.11883697 -43 1141 C-43.7727124 1142.10118164 -43.7727124 1142.10118164 -44.56103516 1143.22460938 C-50.69088775 1151.95399175 -56.88627546 1160.63241639 -63.14477539 1169.27001953 C-66.8002566 1174.32105145 -70.41356491 1179.39975225 -74 1184.5 C-80.7921047 1194.15523463 -87.71820213 1203.71205932 -94.64550781 1213.27050781 C-100.98137414 1222.01573508 -107.27899884 1230.78412243 -113.48950195 1239.61889648 C-117.03345356 1244.65266215 -120.63195451 1249.644314 -124.25 1254.625 C-130.6364292 1263.42914194 -136.84436933 1272.35329515 -143.0390625 1281.29296875 C-146.05425543 1285.64379451 -149.09028501 1289.97925119 -152.13793945 1294.30737305 C-161.59826683 1307.75375467 -170.81721728 1321.36327068 -180 1335 C-180.39910583 1335.59264648 -180.79821167 1336.18529297 -181.20941162 1336.79589844 C-191.03204502 1351.38946821 -200.73173154 1366.04620311 -210 1381 C-210.60521484 1381.97227539 -211.21042969 1382.94455078 -211.83398438 1383.94628906 C-229.94490123 1413.05891212 -246.86180116 1442.70174657 -262.55175781 1473.18701172 C-263.4932823 1475.0157786 -264.43778287 1476.84301741 -265.38574219 1478.66845703 C-307.10330618 1559.14521206 -334.03925424 1651.85260807 -310 1807 C-307.54344226 1814.69675726 -304.85069445 1822.31290708 -302.13671875 1829.921875 C-300.59333587 1834.25044307 -299.17544939 1838.55797026 -298 1843 C-301.15789043 1840.08147439 -303.26810905 1837.16090267 -305.3984375 1833.43359375 C-306.03587891 1832.32145508 -306.67332031 1831.20931641 -307.33007812 1830.06347656 C-308.012288 1828.85513892 -308.69391415 1827.64647156 -309.375 1826.4375 C-309.72393311 1825.82273804 -310.07286621 1825.20797607 -310.43237305 1824.57458496 C-317.99719994 1811.24194317 -325.07181384 1797.6739901 -332 1784 C-332.39622559 1783.22269531 -332.79245117 1782.44539063 -333.20068359 1781.64453125 C-335.15483754 1777.80996501 -337.0799863 1773.96269465 -338.97216797 1770.09716797 C-339.71247727 1768.58665564 -340.45678122 1767.07809876 -341.20361328 1765.57080078 C-363.00571822 1721.48355516 -379.60553561 1674.82536073 -391 1627 C-391.27827637 1625.83436523 -391.55655273 1624.66873047 -391.84326172 1623.46777344 C-398.04453669 1597.06838078 -402.17803855 1570.06212801 -404 1543 C-404.05639648 1542.22253418 -404.11279297 1541.44506836 -404.17089844 1540.64404297 C-409.72549553 1462.041564 -394.75797982 1383.63510613 -344 1261 C-343.68806702 1260.35657654 -343.37613403 1259.71315308 -343.05474854 1259.05023193 C-334.78597649 1242.02519241 -326.19914457 1225.25430865 -316.67578125 1208.88964844 C-314.86140608 1205.76101433 -313.07005569 1202.61988136 -311.28125 1199.4765625 C-304.29869175 1187.23573217 -297.12355565 1175.17013674 -289.48925781 1163.32519531 C-287.98364641 1160.97446696 -286.50096807 1158.61065268 -285.0234375 1156.2421875 C-268.55820281 1129.93925006 -250.84692352 1104.37917658 -233 1079 C-231.94010121 1077.48828332 -230.88020527 1075.97656464 -229.8203125 1074.46484375 C-223.17603501 1065.00575444 -216.42330994 1055.6266324 -209.64111328 1046.26611328 C-206.92351827 1042.513552 -204.21205527 1038.75656581 -201.5 1035 C-200.41669638 1033.49997854 -199.33336304 1031.99997854 -198.25 1030.5 C-197.71375 1029.7575 -197.1775 1029.015 -196.625 1028.25 C-195 1026 -193.375 1023.75 -191.75 1021.5 C-191.21383057 1020.75758057 -190.67766113 1020.01516113 -190.12524414 1019.25024414 C-189.04121584 1017.7493445 -187.95706858 1016.24853078 -186.87280273 1014.74780273 C-184.17412345 1011.01226033 -181.47748688 1007.27527746 -178.78515625 1003.53515625 C-173.17096822 995.74084153 -167.52114617 987.975464 -161.8125 980.25 C-157.40954561 974.29094283 -153.04378815 968.30985819 -148.75268555 962.26977539 C-145.40364365 957.55608226 -142.0166676 952.87059111 -138.625 948.1875 C-132.34635848 939.50733775 -126.15347251 930.76922763 -120 922 C-119.46294434 921.23494141 -118.92588867 920.46988281 -118.37255859 919.68164062 C-115.46628608 915.53975707 -112.56460339 911.39472348 -109.66796875 907.24609375 C-107.24280843 903.77298473 -104.80696854 900.30775022 -102.36328125 896.84765625 C-85.16370476 872.41333727 -68.8712953 847.31446723 -53 822 C-52.46793945 821.154375 -51.93587891 820.30875 -51.38769531 819.4375 C-32.53137556 789.43007923 -15.10270269 758.56727614 1 727 C1.36754395 726.28150879 1.73508789 725.56301758 2.11376953 724.82275391 C4.05138978 721.02540286 5.95079653 717.21078545 7.82714844 713.3828125 C8.69750081 711.61456955 9.57413533 709.84941583 10.45410156 708.0859375 C24.85304262 679.20105272 37.33756042 649.46764311 48 619 C48.2301178 618.34487427 48.4602356 617.68974854 48.69732666 617.01477051 C73.05004072 547.59389458 88.98900872 473.65835931 89.203125 399.83984375 C89.21014824 398.33214286 89.21723505 396.82444226 89.22438049 395.31674194 C89.24378167 390.52365694 89.24881488 385.73062031 89.25 380.9375 C89.25044186 380.12048489 89.25088371 379.30346977 89.25133896 378.46169662 C89.25841185 353.52172716 88.91861682 328.79712971 86 304 C85.82121261 302.43604389 85.64250386 300.8720788 85.46386719 299.30810547 C84.17470971 288.17600976 82.6677735 277.08143496 81 266 C80.8895636 265.26583862 80.7791272 264.53167725 80.66534424 263.77526855 C76.94692453 239.26083825 71.77485102 215.10640656 66 191 C65.83048828 190.29166016 65.66097656 189.58332031 65.48632812 188.85351562 C51.41026494 130.26816174 30.89996748 73.2623841 6.74609375 18.12475586 C6.44222244 17.42752411 6.13835114 16.73029236 5.82527161 16.01193237 C5.00912449 14.14121793 4.18775125 12.27278591 3.3659668 10.40454102 C1.98142936 6.95371445 0.95574178 3.58810811 0 0 Z " fill="#AF732B" transform="translate(1840,348)"/>
<path d="M0 0 C2.79319209 2.79319209 3.29747573 6.03939591 4.28515625 9.7578125 C4.61050606 10.95457108 4.61050606 10.95457108 4.94242859 12.17550659 C5.65806969 14.82302761 6.36151672 17.47356232 7.0625 20.125 C7.30577026 21.03991211 7.54904053 21.95482422 7.79968262 22.89746094 C19.39835782 66.62824225 28.41927549 110.95314465 33 156 C33.07412109 156.71536926 33.14824219 157.43073853 33.22460938 158.16778564 C37.28540733 197.67705039 38.3955827 238.48105646 34 278 C33.86577637 279.2468457 33.73155273 280.49369141 33.59326172 281.77832031 C26.81606131 343.92804109 9.91009697 402.57652594 -17 459 C-17.43924805 459.92377441 -17.87849609 460.84754883 -18.33105469 461.79931641 C-25.44810208 476.66386869 -33.52253574 490.87420765 -42 505 C-42.49532227 505.83047852 -42.99064453 506.66095703 -43.50097656 507.51660156 C-57.29452528 530.61388458 -72.72059377 552.59675138 -89 574 C-89.42490723 574.56138672 -89.84981445 575.12277344 -90.28759766 575.70117188 C-99.52681844 587.90294898 -109.18699005 599.76666472 -119.11474609 611.41357422 C-121.98070331 614.77868827 -124.78534502 618.18638604 -127.5625 621.625 C-131.43579272 626.38520053 -135.50759992 630.92804784 -139.66015625 635.4453125 C-141.65834848 637.62697815 -143.62148889 639.83011309 -145.5625 642.0625 C-152.74940613 650.32157861 -160.15592752 658.385137 -167.56738281 666.44238281 C-168.51249722 667.46996119 -169.45716852 668.49794731 -170.40136719 669.52636719 C-194.06932322 695.30253364 -194.06932322 695.30253364 -205.47265625 706.41015625 C-207.42933763 708.41522542 -209.24306247 710.43179723 -211.05859375 712.55859375 C-216.55467459 718.89851131 -222.6352686 724.6911244 -228.60253906 730.58203125 C-235.72805559 737.56298814 -235.72805559 737.56298814 -242.4375 744.9375 C-248.11361841 751.58941601 -254.53327518 757.5856781 -260.74804688 763.72753906 C-266.48125835 769.3994845 -272.16739741 775.02995337 -277.3984375 781.17578125 C-281.04836941 785.33314272 -285.09174503 789.12830164 -289.0390625 793 C-293.01075076 796.92568414 -296.76589479 800.95652071 -300.41015625 805.1875 C-303.22849144 808.40054061 -306.31500775 811.33303387 -309.375 814.3125 C-312.07583541 817.07764101 -314.59520584 819.95258196 -317.12597656 822.87207031 C-320.28459026 826.45863584 -323.58433008 829.90998995 -326.875 833.375 C-331.98203619 838.77690917 -337.05302867 844.19725896 -341.99609375 849.75 C-343.3953531 851.32109821 -344.80508452 852.88290465 -346.22265625 854.4375 C-350.08649467 858.6791065 -353.83047106 862.97467334 -357.4375 867.4375 C-360.51336588 871.24087503 -363.68753166 874.90082652 -367 878.5 C-371.41881919 883.31190433 -375.57233762 888.28269633 -379.671875 893.3671875 C-381.17431738 895.21430784 -382.69516863 897.04527845 -384.21875 898.875 C-391.25348123 907.33267448 -398.07563446 915.91239915 -404.71484375 924.68359375 C-407.52988961 928.39891276 -410.39942734 932.06854192 -413.28125 935.73217773 C-419.95624179 944.23053283 -426.29992313 952.90362771 -432.45507812 961.78417969 C-434.05426778 964.07783413 -435.67319457 966.35643906 -437.296875 968.6328125 C-479.49122973 1027.96975243 -513.80744342 1093.32313086 -538 1162 C-538.43521973 1163.22783203 -538.87043945 1164.45566406 -539.31884766 1165.72070312 C-565.70113966 1240.4968732 -577.56221158 1318.47421869 -581.8581543 1397.39825439 C-582.00297248 1400.05452145 -582.15050313 1402.71062581 -582.29882812 1405.36669922 C-582.5339806 1409.57772148 -582.76750731 1413.78883008 -583 1418 C-586.01505097 1416.49247451 -586.35728051 1414.25214654 -587.65234375 1411.17578125 C-587.90816727 1410.57105484 -588.16399078 1409.96632843 -588.42756653 1409.34327698 C-589.27257315 1407.33640412 -590.10596335 1405.32498871 -590.9375 1403.3125 C-591.22556519 1402.61972961 -591.51363037 1401.92695923 -591.8104248 1401.2131958 C-613.6259169 1348.6749471 -629.73350308 1293.79602874 -635 1237 C-635.0942627 1236.0303833 -635.18852539 1235.0607666 -635.28564453 1234.06176758 C-636.30398475 1222.08488427 -636.24369305 1210.07446432 -636.25 1198.0625 C-636.25067474 1196.9066037 -636.25134949 1195.7507074 -636.25204468 1194.55978394 C-636.2350446 1176.18842152 -635.62779156 1158.20831949 -633 1140 C-632.75056641 1138.23269531 -632.75056641 1138.23269531 -632.49609375 1136.4296875 C-626.74078961 1096.95256426 -615.2971618 1058.39505454 -599 1022 C-598.50242187 1020.88286621 -598.00484375 1019.76573242 -597.4921875 1018.61474609 C-590.3537739 1002.67858938 -582.72025724 987.13063664 -574 972 C-573.45182617 971.04657715 -572.90365234 970.0931543 -572.33886719 969.11083984 C-558.31601207 944.88701383 -542.78663696 921.40034997 -526 899 C-525.37673828 898.16710449 -524.75347656 897.33420898 -524.11132812 896.47607422 C-515.76842085 885.35965899 -507.23751661 874.41972822 -498.39599609 863.69580078 C-496.37761998 861.24395739 -494.37826594 858.77669438 -492.375 856.3125 C-487.79675875 850.72521104 -483.13789932 845.20824037 -478.45458984 839.70898438 C-477.47460698 838.55761142 -476.49578855 837.40524646 -475.51806641 836.25195312 C-469.30076357 828.91841247 -462.97375214 821.71812093 -456.4453125 814.66015625 C-454.44839207 812.48778754 -452.49171266 810.29460837 -450.5625 808.0625 C-446.03163592 802.84121854 -441.30302004 797.7998648 -436.60253906 792.73193359 C-434.99870199 790.99859719 -433.40079626 789.25998461 -431.8046875 787.51953125 C-427.18645952 782.48785917 -422.56240695 777.48869518 -417.6784668 772.71142578 C-415.99867227 770.9986462 -414.44829183 769.22193992 -412.89453125 767.39453125 C-407.90321061 761.65664837 -402.44427911 756.39776602 -397.02734375 751.06640625 C-396.22425781 750.27105469 -395.42117188 749.47570313 -394.59375 748.65625 C-393.87896484 747.95306641 -393.16417969 747.24988281 -392.42773438 746.52539062 C-390.55089759 744.57305759 -388.79976874 742.60545713 -387.046875 740.546875 C-382.15652767 734.9199528 -376.83371009 729.72275675 -371.54728699 724.47212219 C-369.61848237 722.55623531 -367.69295397 720.63710727 -365.76818848 718.71716309 C-360.98997561 713.95222592 -356.20630184 709.19278345 -351.42279053 704.4331665 C-347.36964716 700.39984525 -343.31862108 696.36441926 -339.27030945 692.32624817 C-337.38527224 690.44763083 -335.49721902 688.57208252 -333.60900879 686.69665527 C-328.4671743 681.57655016 -323.41975498 676.4625969 -318.71105957 670.93591309 C-314.98907624 666.72481701 -310.92813756 662.82901968 -306.9375 658.875 C-305.97748625 657.9194063 -305.01777547 656.96350816 -304.05834961 656.00732422 C-300.53229527 652.49449408 -297.0007571 648.98719427 -293.46936035 645.47973633 C-290.47308792 642.50334483 -287.47897769 639.52480843 -284.48757935 636.54351807 C-283.1011466 635.16346867 -281.71162702 633.78652256 -280.32202148 632.40966797 C-275.8892365 627.99395298 -271.59182217 623.53339309 -267.54064941 618.76330566 C-264.6979629 615.50979115 -261.58324322 612.52322876 -258.5 609.5 C-254.00227191 605.05053433 -249.61981655 600.59072906 -245.53515625 595.75390625 C-243.22348109 593.11283208 -240.71141265 590.68688118 -238.1875 588.25 C-236.28973453 586.29801266 -234.50268548 584.30483681 -232.71875 582.25 C-228.48158351 577.37138613 -224.04849786 572.690373 -219.60546875 568 C-215.83736882 564.00565804 -212.16694898 559.94620278 -208.56738281 555.79931641 C-206.62031046 553.56412587 -204.62505531 551.37529997 -202.625 549.1875 C-199.49577173 545.72469918 -196.49499651 542.19320997 -193.5625 538.5625 C-190.48663412 534.75912497 -187.31246834 531.09917348 -184 527.5 C-179.10625769 522.17025607 -174.53892684 516.63229749 -170 511 C-169.00231195 509.78172437 -168.00355089 508.56432693 -167.00390625 507.34765625 C-160.8421412 499.83442949 -154.81668366 492.23640963 -148.94628906 484.49316406 C-146.17157915 480.83400498 -143.37699268 477.19498091 -140.52734375 473.59375 C-133.25108675 464.3872427 -126.43607738 454.98429534 -119.8828125 445.25 C-117.66551775 441.95917341 -115.37492706 438.74231866 -113 435.5625 C-59.81734633 363.20287268 -21.92239433 276.62238836 -1.1875 166.75 C-0.91329224 164.94680298 -0.91329224 164.94680298 -0.63354492 163.10717773 C2.98855628 137.40080903 4.53453758 111.75961041 4.38591385 85.82131577 C4.37478178 83.64483443 4.36964387 81.46840651 4.36593628 79.29190063 C4.32307537 58.58091279 3.70201799 38.04424358 1.36376953 17.45068359 C0.75176692 11.6452843 0.37479312 5.82521236 0 0 Z " fill="#AF732B" transform="translate(2301,871)"/>
</svg>
